<svg id="visual" viewBox="0 0 540 960" width="540" height="960" xmlns="http://www.w3.org/2000/svg" xmlns:xlink="http://www.w3.org/1999/xlink" version="1.1"><rect x="0" y="0" width="540" height="960" fill="#0f172a"></rect><path d="M0 284L12.8 297.8C25.7 311.7 51.3 339.3 77 350.7C102.7 362 128.3 357 154 351.7C179.7 346.3 205.3 340.7 231.2 347.2C257 353.7 283 372.3 308.8 364.5C334.7 356.7 360.3 322.3 386 318C411.7 313.7 437.3 339.3 463 354.5C488.7 369.7 514.3 374.3 527.2 376.7L540 379L540 0L527.2 0C514.3 0 488.7 0 463 0C437.3 0 411.7 0 386 0C360.3 0 334.7 0 308.8 0C283 0 257 0 231.2 0C205.3 0 179.7 0 154 0C128.3 0 102.7 0 77 0C51.3 0 25.7 0 12.8 0L0 0Z" fill="#4f46e5"></path><path d="M0 287L12.8 285.8C25.7 284.7 51.3 282.3 77 273.5C102.7 264.7 128.3 249.3 154 238.3C179.7 227.3 205.3 220.7 231.2 218.2C257 215.7 283 217.3 308.8 225.3C334.7 233.3 360.3 247.7 386 264.7C411.7 281.7 437.3 301.3 463 293.2C488.7 285 514.3 249 527.2 231L540 213L540 0L527.2 0C514.3 0 488.7 0 463 0C437.3 0 411.7 0 386 0C360.3 0 334.7 0 308.8 0C283 0 257 0 231.2 0C205.3 0 179.7 0 154 0C128.3 0 102.7 0 77 0C51.3 0 25.7 0 12.8 0L0 0Z" fill="#5a59eb"></path><path d="M0 229L12.8 224.7C25.7 220.3 51.3 211.7 77 198.2C102.7 184.7 128.3 166.3 154 174.5C179.7 182.7 205.3 217.3 231.2 233.7C257 250 283 248 308.8 248.3C334.7 248.7 360.3 251.3 386 241C411.7 230.7 437.3 207.3 463 206.5C488.7 205.7 514.3 227.3 527.2 238.2L540 249L540 0L527.2 0C514.3 0 488.7 0 463 0C437.3 0 411.7 0 386 0C360.3 0 334.7 0 308.8 0C283 0 257 0 231.2 0C205.3 0 179.7 0 154 0C128.3 0 102.7 0 77 0C51.3 0 25.7 0 12.8 0L0 0Z" fill="#666af0"></path><path d="M0 144L12.8 140.3C25.7 136.7 51.3 129.3 77 131C102.7 132.7 128.3 143.3 154 142.7C179.7 142 205.3 130 231.2 131C257 132 283 146 308.8 149.5C334.7 153 360.3 146 386 149.5C411.7 153 437.3 167 463 174.5C488.7 182 514.3 183 527.2 183.5L540 184L540 0L527.2 0C514.3 0 488.7 0 463 0C437.3 0 411.7 0 386 0C360.3 0 334.7 0 308.8 0C283 0 257 0 231.2 0C205.3 0 179.7 0 154 0C128.3 0 102.7 0 77 0C51.3 0 25.7 0 12.8 0L0 0Z" fill="#737bf4"></path><path d="M0 78L12.8 73.5C25.7 69 51.3 60 77 58.8C102.7 57.7 128.3 64.3 154 68.8C179.7 73.3 205.3 75.7 231.2 79.5C257 83.3 283 88.7 308.8 89C334.7 89.3 360.3 84.7 386 88.7C411.7 92.7 437.3 105.3 463 98.7C488.7 92 514.3 66 527.2 53L540 40L540 0L527.2 0C514.3 0 488.7 0 463 0C437.3 0 411.7 0 386 0C360.3 0 334.7 0 308.8 0C283 0 257 0 231.2 0C205.3 0 179.7 0 154 0C128.3 0 102.7 0 77 0C51.3 0 25.7 0 12.8 0L0 0Z" fill="#818cf8"></path></svg>